<svg xmlns="http://www.w3.org/2000/svg" viewBox="170 131 663 663" width="663" height="663" role="img" aria-label="hirecall symbol"><defs><linearGradient id="hcSpark" x1="414" y1="363" x2="622" y2="155" gradientUnits="userSpaceOnUse"><stop offset="0" stop-color="#0B5E4B"></stop><stop offset=".55" stop-color="#17A87E"></stop><stop offset="1" stop-color="#63DDA4"></stop></linearGradient></defs><path d="m 505.6,698.25 -16.25,11.05 c -18.85,12.35 -31.2,18.85 -38.35,18.85 -5.85,0 -8.45,-4.55 -8.45,-13 0,-4.55 1.3,-13 4.55,-25.35 l 48.75,-191.1 c 1.95,-9.1 3.25,-16.25 3.25,-22.1 0,-11.7 -5.85,-17.55 -16.9,-17.55 -13.65,0 -40.95,15.6 -83.2,46.8 l -17.55,13 4.55,12.35 17.55,-11.05 c 18.85,-12.35 29.9,-18.2 31.85,-18.2 7.8,0 11.7,5.2 11.7,14.95 0,5.85 -1.95,14.95 -5.2,27.3 l -41.6,151.45 c -5.85,20.15 -8.45,36.4 -8.45,48.1 0,16.9 6.5,25.35 20.15,25.35 6.5,0 16.9,-3.9 31.2,-12.35 16.9,-9.75 39.65,-25.35 68.9,-46.8 z" fill="#111111"></path><path d="M 518 155 C 535 214, 563 242, 622 259 C 563 276, 535 304, 518 363 C 501 304, 473 276, 414 259 C 473 242, 501 214, 518 155 Z" fill="url(#hcSpark)"></path></svg>
